<svg width="31" height="18" viewBox="0 0 31 18" fill="none" xmlns="http://www.w3.org/2000/svg">
<path d="M15.1658 0L14.8626 0.092031L2.75319 4.14916L0 5.05687L1.60328 5.57031V14.0469C1.02494 14.383 0.634531 14.9962 0.634531 15.7131C0.634531 16.227 0.83866 16.7198 1.20201 17.0831C1.56536 17.4465 2.05817 17.6506 2.57203 17.6506C3.08589 17.6506 3.5787 17.4465 3.94205 17.0831C4.3054 16.7198 4.50953 16.227 4.50953 15.7131C4.50953 14.9962 4.11913 14.383 3.54078 14.0469V6.23875L5.47828 6.87328V11.8381C5.47828 12.6325 5.96266 13.2912 6.53809 13.7466C7.11353 14.199 7.82847 14.5187 8.68678 14.8054C10.4053 15.377 12.6703 15.7131 15.1658 15.7131C17.6613 15.7131 19.9262 15.3779 21.6448 14.8044C22.5031 14.5187 23.218 14.199 23.7935 13.7456C24.3689 13.2912 24.8533 12.6325 24.8533 11.8381V6.87328L27.5784 5.96459L30.3316 5.05687L27.5774 4.14819L15.468 0.092031L15.1658 0ZM15.1658 2.02953L24.2478 5.05687L15.1658 8.08422L6.08375 5.05687L15.1658 2.02953ZM7.41578 7.53978L14.8635 10.0217L15.1658 10.1128L15.469 10.0207L22.9158 7.53881V11.8381C22.9158 11.8478 22.9197 11.9602 22.6126 12.2014C22.3064 12.4436 21.7572 12.7487 21.0383 12.989C19.6027 13.4666 17.4859 13.7756 15.1658 13.7756C12.8456 13.7756 10.7289 13.4676 9.29225 12.988C8.57538 12.7487 8.02513 12.4426 7.719 12.2014C7.41094 11.9592 7.41578 11.8478 7.41578 11.8381V7.53978Z" fill="#C6C3C3"/>
</svg>
