<svg width="31" height="36" viewBox="0 0 31 36" fill="none" xmlns="http://www.w3.org/2000/svg">
<path d="M15.1658 18L14.8626 18.092L2.75319 22.1492L0 23.0569L1.60328 23.5703V32.0469C1.02494 32.383 0.634531 32.9962 0.634531 33.7131C0.634531 34.227 0.83866 34.7198 1.20201 35.0831C1.56536 35.4465 2.05817 35.6506 2.57203 35.6506C3.08589 35.6506 3.5787 35.4465 3.94205 35.0831C4.3054 34.7198 4.50953 34.227 4.50953 33.7131C4.50953 32.9962 4.11913 32.383 3.54078 32.0469V24.2387L5.47828 24.8733V29.8381C5.47828 30.6325 5.96266 31.2912 6.53809 31.7466C7.11353 32.199 7.82847 32.5187 8.68678 32.8054C10.4053 33.377 12.6703 33.7131 15.1658 33.7131C17.6613 33.7131 19.9262 33.3779 21.6448 32.8044C22.5031 32.5187 23.218 32.199 23.7935 31.7456C24.3689 31.2912 24.8533 30.6325 24.8533 29.8381V24.8733L27.5784 23.9646L30.3316 23.0569L27.5774 22.1482L15.468 18.092L15.1658 18ZM15.1658 20.0295L24.2478 23.0569L15.1658 26.0842L6.08375 23.0569L15.1658 20.0295ZM7.41578 25.5398L14.8635 28.0217L15.1658 28.1128L15.469 28.0207L22.9158 25.5388V29.8381C22.9158 29.8478 22.9197 29.9602 22.6126 30.2014C22.3064 30.4436 21.7572 30.7487 21.0383 30.989C19.6027 31.4666 17.4859 31.7756 15.1658 31.7756C12.8456 31.7756 10.7289 31.4676 9.29225 30.988C8.57538 30.7487 8.02513 30.4426 7.719 30.2014C7.41094 29.9592 7.41578 29.8478 7.41578 29.8381V25.5398Z" fill="#C6C3C3"/>
<path d="M6.16602 8.3747L8.83344 9.90932C9.32193 10.1906 9.91969 9.77481 9.79114 9.24901L9.08411 6.36318L11.443 4.41892C11.8737 4.0643 11.6423 3.39176 11.0766 3.34896L7.97215 3.09829L6.75735 0.371428C6.53881 -0.123809 5.79322 -0.123809 5.57468 0.371428L4.35988 3.09217L1.25539 3.34285C0.68977 3.38565 0.458379 4.05819 0.889023 4.4128L3.24792 6.35707L2.5409 9.24289C2.41235 9.7687 3.0101 10.1845 3.4986 9.90321L6.16602 8.3747Z" fill="#0038A9"/>
<path d="M23.166 8.3747L25.8334 9.90932C26.3219 10.1906 26.9197 9.77481 26.7911 9.24901L26.0841 6.36318L28.443 4.41892C28.8737 4.0643 28.6423 3.39176 28.0766 3.34896L24.9721 3.09829L23.7573 0.371428C23.5388 -0.123809 22.7932 -0.123809 22.5747 0.371428L21.3599 3.09217L18.2554 3.34285C17.6898 3.38565 17.4584 4.05819 17.889 4.4128L20.2479 6.35707L19.5409 9.24289C19.4123 9.7687 20.0101 10.1845 20.4986 9.90321L23.166 8.3747Z" fill="#C6C3C3"/>
</svg>
