<svg xmlns="http://www.w3.org/2000/svg" xmlns:xlink="http://www.w3.org/1999/xlink" width="500" zoomAndPan="magnify" viewBox="0 0 375 374.999991" height="500" preserveAspectRatio="xMidYMid meet" version="1.0"><defs><clipPath id="3de876fae2"><path d="M 100.925781 215 L 263 215 L 263 221.609375 L 100.925781 221.609375 Z M 100.925781 215 " clip-rule="nonzero"/></clipPath></defs><path fill="#e1e1e1" d="M 181.695312 51.863281 C 181.695312 51.863281 131.09375 51.863281 120.691406 51.863281 C 110.292969 51.863281 112.191406 48.144531 129.757812 46.515625 C 124.742188 31.988281 135.144531 23.566406 148.007812 29.210938 C 152.960938 10.859375 181.863281 10.109375 184.515625 33.597656 C 195.792969 30.441406 200.199219 40.746094 196.503906 47.601562 C 209.910156 47.601562 220.3125 52.050781 195.980469 52.050781 C 184.871094 52.03125 181.695312 51.863281 181.695312 51.863281 Z M 181.695312 51.863281 " fill-opacity="1" fill-rule="nonzero"/><path fill="#e1e1e1" d="M 234.410156 76.234375 C 215.382812 76.234375 214.632812 76.234375 204.417969 76.234375 C 194.207031 76.234375 187.648438 74.058594 203.105469 71.992188 C 199.824219 61.121094 215.132812 53.433594 222.734375 65.300781 C 225.929688 60.558594 237.375 62.335938 234.410156 72.367188 C 247.984375 73.328125 250.242188 76.234375 234.410156 76.234375 Z M 234.410156 76.234375 " fill-opacity="1" fill-rule="nonzero"/><g clip-path="url(#3de876fae2)"><path fill="#c6c5c4" d="M 262.0625 218.515625 C 262.0625 220.226562 260.683594 221.609375 258.96875 221.609375 L 104.089844 221.609375 C 102.375 221.609375 100.996094 220.226562 100.996094 218.515625 C 100.996094 216.800781 102.375 215.421875 104.089844 215.421875 L 258.96875 215.421875 C 260.683594 215.421875 262.0625 216.800781 262.0625 218.515625 Z M 262.0625 218.515625 " fill-opacity="1" fill-rule="nonzero"/></g><path fill="#b89067" d="M 230.714844 94.414062 L 258.761719 94.414062 L 258.761719 131.40625 L 230.714844 131.40625 Z M 230.714844 94.414062 " fill-opacity="1" fill-rule="nonzero"/><path fill="#d6b997" d="M 208.660156 94.414062 L 230.714844 94.414062 L 230.714844 131.40625 L 208.660156 131.40625 Z M 208.660156 94.414062 " fill-opacity="1" fill-rule="nonzero"/><path fill="#95673c" d="M 241.03125 94.414062 L 247.234375 94.414062 L 247.234375 104.71875 L 241.03125 104.71875 Z M 241.03125 94.414062 " fill-opacity="1" fill-rule="nonzero"/><path fill="#1f4199" d="M 189.507812 59.117188 C 189.507812 59.117188 199.300781 57.195312 202.332031 66.554688 C 205.359375 75.917969 210.183594 100.707031 211.730469 108.941406 C 197.003906 114.894531 185.8125 112.347656 182.554688 111.34375 L 177.207031 86.265625 C 177.207031 86.265625 154.527344 104.320312 143.457031 107.164062 C 142.183594 104.90625 142.683594 103.734375 138.003906 102.316406 C 169.667969 79.554688 172.195312 67.289062 181.550781 61.6875 C 186.0625 58.949219 189.507812 59.117188 189.507812 59.117188 Z M 189.507812 59.117188 " fill-opacity="1" fill-rule="nonzero"/><path fill="#6d3a2c" d="M 131.550781 178.597656 L 133.472656 152.914062 C 134.039062 144.84375 135.542969 140.496094 141.097656 140.894531 C 142.746094 141.019531 141.328125 145.449219 140.679688 145.386719 C 137.546875 145.054688 137.652344 153.226562 137.652344 153.226562 L 135.667969 179.515625 C 136.230469 180.332031 136.585938 181.417969 136.585938 182.628906 C 136.585938 185.160156 135.039062 187.207031 133.160156 187.207031 C 131.261719 187.207031 129.734375 185.160156 129.734375 182.628906 C 129.734375 180.875 130.464844 179.371094 131.550781 178.597656 Z M 131.550781 178.597656 " fill-opacity="1" fill-rule="nonzero"/><path fill="#6d3a2c" d="M 198.027344 130.570312 L 220.625 183.90625 L 224.363281 182.003906 L 201.746094 128.667969 Z M 198.027344 130.570312 " fill-opacity="1" fill-rule="nonzero"/><path fill="#b89067" d="M 216.34375 181.753906 C 216.34375 184.910156 218.914062 187.480469 222.066406 187.480469 C 225.21875 187.480469 227.789062 184.910156 227.789062 181.753906 C 227.789062 178.597656 225.21875 176.027344 222.066406 176.027344 C 218.914062 176.027344 216.34375 178.597656 216.34375 181.753906 Z M 216.34375 181.753906 " fill-opacity="1" fill-rule="nonzero"/><path fill="#6d3a2c" d="M 222.714844 184.40625 C 226.285156 184.40625 234.871094 184.40625 234.871094 184.40625 L 234.871094 180.226562 C 234.871094 180.226562 226.558594 180.226562 222.714844 180.226562 C 218.871094 180.226562 219.144531 184.40625 222.714844 184.40625 Z M 222.714844 184.40625 " fill-opacity="1" fill-rule="nonzero"/><path fill="#b89067" d="M 134.308594 184.992188 C 137.878906 184.992188 146.464844 184.992188 146.464844 184.992188 L 146.464844 180.8125 C 146.464844 180.8125 138.152344 180.8125 134.308594 180.8125 C 130.464844 180.8125 130.738281 184.992188 134.308594 184.992188 Z M 134.308594 184.992188 " fill-opacity="1" fill-rule="nonzero"/><path fill="#fcc082" d="M 143.457031 106.558594 C 143.457031 106.558594 140.617188 112.117188 135.875 112.117188 C 131.113281 112.117188 128.292969 111.90625 127.875 108.167969 C 127.480469 104.425781 127.167969 102.191406 130.007812 102.191406 C 132.847656 102.191406 135.144531 102.292969 138.003906 102.292969 C 142.914062 102.292969 143.457031 106.558594 143.457031 106.558594 Z M 143.457031 106.558594 " fill-opacity="1" fill-rule="nonzero"/><path fill="#4683c4" d="M 136.917969 109.546875 C 136.917969 110.027344 137.378906 110.425781 137.921875 110.425781 L 163.191406 110.425781 C 163.757812 110.425781 164.195312 110.027344 164.195312 109.546875 L 164.195312 106.933594 C 164.195312 106.453125 163.734375 106.054688 163.191406 106.054688 L 137.921875 106.054688 C 137.359375 106.054688 136.917969 106.453125 136.917969 106.933594 Z M 136.917969 109.546875 " fill-opacity="1" fill-rule="nonzero"/><path fill="#000000" d="M 183.179688 126.789062 C 183.179688 126.789062 215.925781 133.433594 217.136719 121.75 C 217.972656 113.683594 212.082031 113.746094 212.082031 113.746094 C 212.082031 113.746094 178.917969 112.910156 183.179688 126.789062 Z M 183.179688 126.789062 " fill-opacity="1" fill-rule="nonzero"/><path fill="#000000" d="M 171.527344 159.683594 C 171.527344 159.683594 165.386719 163.589844 168.121094 168.105469 C 168.976562 169.527344 169.0625 169.652344 169.0625 169.652344 L 182.34375 161.5625 C 182.34375 161.5625 179.964844 157.636719 178.5625 155.355469 C 174.574219 157.824219 171.527344 159.683594 171.527344 159.683594 Z M 171.527344 159.683594 " fill-opacity="1" fill-rule="nonzero"/><path fill="#ffffff" d="M 168.199219 167.730469 L 181.042969 159.90625 L 181.96875 161.425781 L 169.121094 169.246094 Z M 168.199219 167.730469 " fill-opacity="1" fill-rule="nonzero"/><path fill="#1f4199" d="M 211.730469 108.941406 C 211.730469 108.941406 213.878906 116.503906 207.511719 121.542969 C 199.761719 127.644531 164.238281 123.714844 164.238281 123.714844 L 178.960938 155.378906 L 170.816406 160.226562 C 170.816406 160.226562 147.445312 124.636719 147.445312 117.46875 C 147.445312 109.359375 182.574219 111.363281 182.574219 111.363281 C 182.574219 111.363281 194.75 115.25 211.730469 108.941406 Z M 211.730469 108.941406 " fill-opacity="1" fill-rule="nonzero"/><path fill="#4683c4" d="M 171.464844 170.96875 C 171.753906 171.449219 172.382812 171.597656 172.863281 171.304688 L 184.953125 163.945312 C 185.433594 163.65625 185.582031 163.027344 185.289062 162.546875 L 184.601562 161.398438 C 184.308594 160.917969 183.679688 160.769531 183.199219 161.0625 L 171.109375 168.417969 C 170.628906 168.710938 170.480469 169.339844 170.773438 169.820312 Z M 171.464844 170.96875 " fill-opacity="1" fill-rule="nonzero"/><path fill="#4683c4" d="M 186.4375 183.046875 C 188.003906 185.285156 190.574219 183.363281 189.296875 181.230469 C 188.023438 179.097656 180.191406 166.832031 180.191406 166.832031 L 177.226562 168.648438 C 177.226562 168.628906 184.871094 180.8125 186.4375 183.046875 Z M 186.4375 183.046875 " fill-opacity="1" fill-rule="nonzero"/><path fill="#d6b997" d="M 200.011719 182.628906 C 200.011719 200.605469 211.3125 215.148438 225.21875 215.148438 C 239.152344 215.148438 250.429688 200.582031 250.429688 182.628906 C 250.429688 164.679688 239.128906 150.113281 225.21875 150.113281 C 211.289062 150.089844 200.011719 164.65625 200.011719 182.628906 Z M 203.0625 182.628906 C 203.0625 166.832031 212.980469 154.039062 225.21875 154.039062 C 237.457031 154.039062 247.378906 166.851562 247.378906 182.628906 C 247.378906 198.429688 237.457031 211.222656 225.21875 211.222656 C 212.980469 211.222656 203.0625 198.429688 203.0625 182.628906 Z M 203.0625 182.628906 " fill-opacity="1" fill-rule="nonzero"/><path fill="#000000" d="M 196.777344 182.316406 C 196.777344 202.316406 209.515625 218.515625 225.21875 218.515625 C 240.925781 218.515625 253.664062 202.296875 253.664062 182.316406 C 253.664062 162.316406 240.925781 146.121094 225.21875 146.121094 C 209.515625 146.121094 196.777344 162.316406 196.777344 182.316406 Z M 200.953125 182.628906 C 200.953125 165.347656 211.8125 151.324219 225.21875 151.324219 C 238.628906 151.324219 249.488281 165.347656 249.488281 182.628906 C 249.488281 199.914062 238.628906 213.9375 225.21875 213.9375 C 211.8125 213.9375 200.953125 199.914062 200.953125 182.628906 Z M 200.953125 182.628906 " fill-opacity="1" fill-rule="nonzero"/><path fill="#6d3a2c" d="M 204.605469 135.585938 C 204.605469 135.585938 256.902344 135.585938 259.617188 135.585938 C 263.605469 135.585938 263.441406 131.40625 259.617188 131.40625 C 255.796875 131.40625 204.605469 131.40625 204.605469 131.40625 Z M 204.605469 135.585938 " fill-opacity="1" fill-rule="nonzero"/><path fill="#f8a257" d="M 182.492188 58.300781 C 182.492188 58.300781 182.824219 60.203125 183.222656 62.1875 C 184.453125 64.53125 187.710938 63.796875 187.710938 63.796875 C 187.710938 63.796875 190.78125 62.667969 191.15625 59.765625 C 190.382812 57.90625 189.632812 56.105469 189.632812 56.105469 Z M 182.492188 58.300781 " fill-opacity="1" fill-rule="nonzero"/><path fill="#fcc082" d="M 185.394531 58.449219 C 169.019531 58.449219 170.503906 46.242188 170.503906 46.242188 C 170.503906 46.242188 165.90625 46.578125 165.90625 40.433594 C 165.90625 34.289062 170.503906 36.042969 170.503906 36.042969 L 170.503906 29.960938 C 170.503906 29.960938 170.378906 24.089844 185.394531 24.089844 L 185.9375 24.089844 C 200.972656 24.089844 200.828125 29.960938 200.828125 29.960938 L 200.828125 36.042969 C 200.828125 36.042969 205.421875 34.289062 205.421875 40.433594 C 205.421875 46.578125 200.828125 46.242188 200.828125 46.242188 C 200.828125 46.242188 201.640625 58.449219 185.9375 58.449219 Z M 185.394531 58.449219 " fill-opacity="1" fill-rule="nonzero"/><path fill="#8e453d" d="M 202.332031 29.628906 L 202.332031 35.8125 C 202.332031 35.8125 201.515625 35.710938 200.847656 36.042969 C 199.492188 34.015625 199.09375 29.628906 199.09375 29.628906 Z M 202.332031 29.628906 " fill-opacity="1" fill-rule="nonzero"/><path fill="#000000" d="M 191.867188 40.433594 C 191.867188 41.289062 192.558594 41.980469 193.414062 41.980469 C 194.269531 41.980469 194.957031 41.289062 194.957031 40.433594 L 194.957031 39.21875 C 194.957031 38.363281 194.269531 37.675781 193.414062 37.675781 C 192.558594 37.675781 191.867188 38.363281 191.867188 39.21875 Z M 191.867188 40.433594 " fill-opacity="1" fill-rule="nonzero"/><path fill="#000000" d="M 196.398438 34.226562 C 196.398438 34.226562 194.082031 33.074219 191.199219 34.558594 C 190.363281 35.019531 189.925781 34.183594 190.65625 33.722656 C 191.074219 33.453125 193.601562 32.238281 196.609375 33.746094 C 196.859375 33.976562 196.628906 34.328125 196.398438 34.226562 Z M 196.398438 34.226562 " fill-opacity="1" fill-rule="nonzero"/><path fill="#8e453d" d="M 169.019531 29.628906 L 169.019531 35.8125 C 169.019531 35.8125 169.835938 35.710938 170.503906 36.042969 C 171.859375 34.015625 172.257812 29.628906 172.257812 29.628906 Z M 169.019531 29.628906 " fill-opacity="1" fill-rule="nonzero"/><path fill="#000000" d="M 179.460938 40.433594 C 179.460938 41.289062 178.773438 41.980469 177.917969 41.980469 C 177.058594 41.980469 176.371094 41.289062 176.371094 40.433594 L 176.371094 39.21875 C 176.371094 38.363281 177.058594 37.675781 177.917969 37.675781 C 178.773438 37.675781 179.460938 38.363281 179.460938 39.21875 Z M 179.460938 40.433594 " fill-opacity="1" fill-rule="nonzero"/><path fill="#000000" d="M 174.949219 34.226562 C 174.949219 34.226562 177.289062 33.074219 180.152344 34.558594 C 180.988281 35.019531 181.425781 34.183594 180.695312 33.722656 C 180.277344 33.453125 177.75 32.238281 174.742188 33.746094 C 174.46875 33.976562 174.722656 34.328125 174.949219 34.226562 Z M 174.949219 34.226562 " fill-opacity="1" fill-rule="nonzero"/><path fill="#f8a257" d="M 200.703125 43.378906 L 200.703125 39.054688 C 200.703125 39.054688 203.25 37.964844 203.25 40.558594 C 203.25 42.898438 201.347656 43.378906 200.703125 43.378906 Z M 200.703125 43.378906 " fill-opacity="1" fill-rule="nonzero"/><path fill="#f8a257" d="M 170.605469 43.378906 L 170.605469 39.054688 C 170.605469 39.054688 168.058594 37.964844 168.058594 40.558594 C 168.058594 42.898438 169.980469 43.378906 170.605469 43.378906 Z M 170.605469 43.378906 " fill-opacity="1" fill-rule="nonzero"/><path fill="#8e453d" d="M 180.671875 47.203125 L 190.65625 47.203125 C 190.65625 47.203125 191.136719 53.140625 185.664062 53.140625 C 180.191406 53.117188 180.671875 47.203125 180.671875 47.203125 Z M 180.671875 47.203125 " fill-opacity="1" fill-rule="nonzero"/><path fill="#ffffff" d="M 180.671875 47.203125 C 180.671875 47.203125 180.570312 48.6875 181.425781 48.6875 C 183.785156 48.6875 187.585938 48.6875 189.96875 48.6875 C 190.824219 48.6875 190.65625 47.203125 190.65625 47.203125 Z M 180.671875 47.203125 " fill-opacity="1" fill-rule="nonzero"/><path fill="#f05d59" d="M 188.171875 52.574219 C 188.171875 52.574219 187.273438 53.140625 185.601562 53.140625 C 183.910156 53.140625 183.160156 52.574219 183.160156 52.574219 C 183.160156 52.574219 183.804688 51.089844 185.664062 51.089844 C 187.523438 51.089844 188.171875 52.574219 188.171875 52.574219 Z M 188.171875 52.574219 " fill-opacity="1" fill-rule="nonzero"/><path fill="#1f4199" d="M 164.757812 103.734375 C 164.757812 103.734375 180.109375 95.125 190.40625 66.304688 C 191.21875 64.027344 191.679688 60.703125 191.179688 59.765625 C 193.832031 59.074219 201.160156 58.550781 203.3125 69.878906 C 200.972656 88.960938 171.148438 108.25 171.148438 108.25 C 171.148438 108.25 167.535156 109.523438 164.757812 103.734375 Z M 164.757812 103.734375 " fill-opacity="1" fill-rule="nonzero"/><path fill="#d6b997" d="M 109.5625 182.628906 C 109.5625 200.605469 120.859375 215.148438 134.769531 215.148438 C 148.699219 215.148438 159.976562 200.582031 159.976562 182.628906 C 159.976562 164.679688 148.679688 150.113281 134.769531 150.113281 C 120.859375 150.089844 109.5625 164.65625 109.5625 182.628906 Z M 112.609375 182.628906 C 112.609375 166.832031 122.53125 154.039062 134.769531 154.039062 C 147.007812 154.039062 156.925781 166.851562 156.925781 182.628906 C 156.925781 198.429688 147.007812 211.222656 134.769531 211.222656 C 122.53125 211.222656 112.609375 198.429688 112.609375 182.628906 Z M 112.609375 182.628906 " fill-opacity="1" fill-rule="nonzero"/><path fill="#000000" d="M 106.324219 182.316406 C 106.324219 202.316406 119.0625 218.515625 134.769531 218.515625 C 150.496094 218.515625 163.234375 202.316406 163.234375 182.316406 C 163.234375 162.316406 150.496094 146.121094 134.789062 146.121094 C 119.0625 146.121094 106.324219 162.316406 106.324219 182.316406 Z M 110.5 182.628906 C 110.5 165.347656 121.359375 151.324219 134.769531 151.324219 C 148.175781 151.324219 159.035156 165.347656 159.035156 182.628906 C 159.035156 199.914062 148.175781 213.9375 134.769531 213.9375 C 121.359375 213.9375 110.5 199.914062 110.5 182.628906 Z M 110.5 182.628906 " fill-opacity="1" fill-rule="nonzero"/><path fill="#fcc082" d="M 171.128906 107.226562 C 169.6875 108.1875 169.667969 108.1875 169.667969 108.1875 C 169.667969 108.1875 166.828125 113.746094 162.085938 113.746094 C 157.324219 113.746094 154.503906 113.539062 154.085938 109.796875 C 153.691406 106.054688 153.378906 103.820312 156.21875 103.820312 C 159.058594 103.820312 164.214844 103.925781 164.214844 103.925781 C 164.214844 103.925781 170 102.546875 171.128906 107.226562 Z M 171.128906 107.226562 " fill-opacity="1" fill-rule="nonzero"/><path fill="#4683c4" d="M 199.113281 204.40625 L 201.953125 202.589844 L 188.902344 181.0625 L 186.0625 182.882812 Z M 199.113281 204.40625 " fill-opacity="1" fill-rule="nonzero"/><path fill="#000000" d="M 187.773438 190.550781 L 187.773438 174.730469 L 235.265625 176.445312 L 235.265625 187.292969 Z M 188.714844 175.714844 L 188.714844 189.546875 L 234.328125 186.414062 L 234.328125 177.363281 Z M 188.714844 175.714844 " fill-opacity="1" fill-rule="nonzero"/><path fill="#4683c4" d="M 165.949219 109.546875 C 165.949219 110.027344 166.410156 110.425781 166.953125 110.425781 L 169.226562 110.425781 C 169.792969 110.425781 170.230469 110.027344 170.230469 109.546875 L 170.230469 106.933594 C 170.230469 106.453125 169.769531 106.054688 169.226562 106.054688 L 166.953125 106.054688 C 166.386719 106.054688 165.949219 106.453125 165.949219 106.933594 Z M 165.949219 109.546875 " fill-opacity="1" fill-rule="nonzero"/><path fill="#000000" d="M 126.289062 160.308594 C 126.5 160.164062 126.789062 160.226562 126.9375 160.4375 C 127.082031 160.644531 127.019531 160.9375 126.8125 161.082031 C 120.671875 165.261719 116.871094 173.519531 116.871094 182.628906 C 116.871094 186.519531 117.539062 190.238281 118.875 193.664062 C 120.148438 196.925781 121.988281 199.832031 124.222656 202.046875 C 124.410156 202.234375 124.410156 202.527344 124.222656 202.714844 C 124.136719 202.796875 124.011719 202.859375 123.886719 202.859375 C 123.761719 202.859375 123.65625 202.820312 123.554688 202.734375 C 121.234375 200.4375 119.3125 197.425781 118 194.042969 C 116.621094 190.488281 115.929688 186.664062 115.929688 182.652344 C 115.929688 173.207031 119.898438 164.65625 126.289062 160.308594 Z M 126.289062 160.308594 " fill-opacity="1" fill-rule="nonzero"/><path fill="#000000" d="M 153.441406 182.628906 C 153.441406 178.347656 152.582031 174.125 150.953125 170.445312 C 149.386719 166.894531 147.132812 163.882812 144.460938 161.792969 C 144.25 161.628906 144.230469 161.335938 144.375 161.144531 C 144.542969 160.9375 144.835938 160.917969 145.023438 161.0625 C 147.820312 163.257812 150.160156 166.371094 151.789062 170.089844 C 153.460938 173.894531 154.359375 178.242188 154.359375 182.652344 C 154.359375 189.632812 152.125 196.363281 148.199219 201.105469 C 148.113281 201.210938 147.96875 201.273438 147.84375 201.273438 C 147.738281 201.273438 147.632812 201.230469 147.550781 201.167969 C 147.339844 201 147.320312 200.707031 147.488281 200.519531 C 151.289062 195.902344 153.441406 189.402344 153.441406 182.628906 Z M 153.441406 182.628906 " fill-opacity="1" fill-rule="nonzero"/><path fill="#000000" d="M 149.136719 182.628906 C 149.136719 175.359375 145.898438 168.734375 140.910156 165.722656 C 140.679688 165.597656 140.617188 165.304688 140.742188 165.074219 C 140.867188 164.84375 141.160156 164.78125 141.390625 164.910156 C 146.671875 168.0625 150.078125 175.023438 150.078125 182.609375 C 150.078125 189.359375 147.464844 195.527344 143.101562 199.121094 C 143.019531 199.183594 142.914062 199.226562 142.808594 199.226562 C 142.683594 199.226562 142.539062 199.160156 142.453125 199.058594 C 142.289062 198.847656 142.328125 198.554688 142.515625 198.410156 C 146.652344 195.003906 149.136719 189.089844 149.136719 182.628906 Z M 149.136719 182.628906 " fill-opacity="1" fill-rule="nonzero"/><path fill="#000000" d="M 129.316406 164.699219 C 129.546875 164.574219 129.820312 164.65625 129.945312 164.886719 C 130.070312 165.117188 129.984375 165.390625 129.757812 165.515625 C 124.535156 168.417969 121.152344 175.128906 121.152344 182.628906 C 121.152344 188.984375 123.574219 194.835938 127.625 198.261719 C 127.8125 198.429688 127.855469 198.722656 127.6875 198.933594 C 127.605469 199.035156 127.460938 199.097656 127.332031 199.097656 C 127.230469 199.097656 127.125 199.058594 127.042969 198.996094 C 122.78125 195.378906 120.234375 189.277344 120.234375 182.652344 C 120.234375 174.792969 123.804688 167.75 129.316406 164.699219 Z M 129.316406 164.699219 " fill-opacity="1" fill-rule="nonzero"/><path fill="#000000" d="M 139.382812 193.789062 C 142.621094 191.636719 144.625 187.3125 144.625 182.503906 C 144.625 178.285156 143.039062 174.355469 140.386719 171.992188 C 140.199219 171.824219 140.179688 171.535156 140.34375 171.324219 C 140.511719 171.136719 140.804688 171.117188 141.011719 171.28125 C 143.851562 173.8125 145.566406 177.992188 145.566406 182.484375 C 145.566406 187.605469 143.394531 192.222656 139.90625 194.5625 C 139.824219 194.625 139.738281 194.648438 139.65625 194.648438 C 139.507812 194.648438 139.363281 194.5625 139.257812 194.4375 C 139.113281 194.230469 139.175781 193.9375 139.382812 193.789062 Z M 139.382812 193.789062 " fill-opacity="1" fill-rule="nonzero"/><path fill="#000000" d="M 129.277344 171.28125 C 129.464844 171.117188 129.757812 171.136719 129.945312 171.324219 C 130.113281 171.511719 130.089844 171.804688 129.902344 171.992188 C 127.25 174.355469 125.664062 178.285156 125.664062 182.503906 C 125.664062 187.144531 127.585938 191.410156 130.65625 193.625 C 130.863281 193.769531 130.90625 194.0625 130.757812 194.273438 C 130.675781 194.398438 130.527344 194.460938 130.382812 194.460938 C 130.277344 194.460938 130.195312 194.4375 130.113281 194.375 C 126.789062 191.992188 124.722656 187.4375 124.722656 182.503906 C 124.722656 178.011719 126.4375 173.8125 129.277344 171.28125 Z M 129.277344 171.28125 " fill-opacity="1" fill-rule="nonzero"/><path fill="#000000" d="M 243.515625 182.628906 C 243.515625 178.347656 242.660156 174.125 241.03125 170.445312 C 239.464844 166.894531 237.207031 163.882812 234.535156 161.792969 C 234.328125 161.628906 234.304688 161.335938 234.453125 161.144531 C 234.617188 160.9375 234.910156 160.917969 235.097656 161.0625 C 237.898438 163.257812 240.238281 166.371094 241.867188 170.089844 C 243.535156 173.894531 244.433594 178.242188 244.433594 182.652344 C 244.433594 189.632812 242.199219 196.363281 238.292969 201.105469 C 238.210938 201.210938 238.066406 201.273438 237.9375 201.273438 C 237.835938 201.273438 237.730469 201.230469 237.648438 201.167969 C 237.4375 201 237.417969 200.707031 237.585938 200.519531 C 241.34375 195.902344 243.515625 189.402344 243.515625 182.628906 Z M 243.515625 182.628906 " fill-opacity="1" fill-rule="nonzero"/><path fill="#000000" d="M 216.34375 160.308594 C 216.554688 160.164062 216.84375 160.226562 216.992188 160.4375 C 217.136719 160.644531 217.074219 160.9375 216.867188 161.082031 C 210.726562 165.261719 206.925781 173.519531 206.925781 182.628906 C 206.925781 186.519531 207.59375 190.238281 208.929688 193.664062 C 210.203125 196.925781 212.042969 199.832031 214.277344 202.046875 C 214.464844 202.234375 214.464844 202.527344 214.277344 202.714844 C 214.191406 202.796875 214.066406 202.859375 213.941406 202.859375 C 213.816406 202.859375 213.714844 202.820312 213.609375 202.734375 C 211.289062 200.4375 209.367188 197.425781 208.054688 194.042969 C 206.675781 190.488281 205.984375 186.664062 205.984375 182.652344 C 205.984375 173.207031 209.972656 164.65625 216.34375 160.308594 Z M 216.34375 160.308594 " fill-opacity="1" fill-rule="nonzero"/><path fill="#000000" d="M 239.191406 182.628906 C 239.191406 175.359375 235.957031 168.734375 230.964844 165.722656 C 230.734375 165.597656 230.671875 165.304688 230.796875 165.074219 C 230.921875 164.84375 231.214844 164.78125 231.445312 164.910156 C 236.726562 168.0625 240.132812 175.023438 240.132812 182.609375 C 240.132812 189.359375 237.523438 195.527344 233.15625 199.121094 C 233.074219 199.183594 232.96875 199.226562 232.863281 199.226562 C 232.738281 199.226562 232.59375 199.160156 232.507812 199.058594 C 232.34375 198.847656 232.382812 198.554688 232.570312 198.410156 C 236.707031 195.003906 239.191406 189.089844 239.191406 182.628906 Z M 239.191406 182.628906 " fill-opacity="1" fill-rule="nonzero"/><path fill="#000000" d="M 219.394531 164.699219 C 219.625 164.574219 219.894531 164.65625 220.019531 164.886719 C 220.144531 165.117188 220.0625 165.390625 219.832031 165.515625 C 214.609375 168.417969 211.226562 175.128906 211.226562 182.628906 C 211.226562 188.984375 213.648438 194.835938 217.703125 198.261719 C 217.890625 198.429688 217.933594 198.722656 217.765625 198.933594 C 217.679688 199.035156 217.535156 199.097656 217.410156 199.097656 C 217.304688 199.097656 217.199219 199.058594 217.117188 198.996094 C 212.855469 195.378906 210.308594 189.277344 210.308594 182.652344 C 210.308594 174.792969 213.878906 167.75 219.394531 164.699219 Z M 219.394531 164.699219 " fill-opacity="1" fill-rule="nonzero"/><path fill="#000000" d="M 229.460938 193.789062 C 232.695312 191.636719 234.703125 187.3125 234.703125 182.503906 C 234.703125 178.285156 233.113281 174.355469 230.460938 171.992188 C 230.273438 171.824219 230.253906 171.535156 230.421875 171.324219 C 230.585938 171.136719 230.878906 171.117188 231.089844 171.28125 C 233.929688 173.8125 235.640625 177.992188 235.640625 182.484375 C 235.640625 187.605469 233.46875 192.222656 229.980469 194.5625 C 229.898438 194.625 229.816406 194.648438 229.730469 194.648438 C 229.585938 194.648438 229.4375 194.5625 229.335938 194.4375 C 229.1875 194.230469 229.25 193.9375 229.460938 193.789062 Z M 229.460938 193.789062 " fill-opacity="1" fill-rule="nonzero"/><path fill="#000000" d="M 219.351562 171.28125 C 219.539062 171.117188 219.832031 171.136719 220.019531 171.324219 C 220.1875 171.511719 220.167969 171.804688 219.976562 171.992188 C 217.324219 174.355469 215.738281 178.285156 215.738281 182.503906 C 215.738281 187.144531 217.660156 191.410156 220.730469 193.625 C 220.9375 193.769531 220.980469 194.0625 220.835938 194.273438 C 220.75 194.398438 220.605469 194.460938 220.457031 194.460938 C 220.355469 194.460938 220.269531 194.4375 220.1875 194.375 C 216.867188 191.992188 214.800781 187.4375 214.800781 182.503906 C 214.800781 178.011719 216.511719 173.8125 219.351562 171.28125 Z M 219.351562 171.28125 " fill-opacity="1" fill-rule="nonzero"/><path fill="#6d3a2c" d="M 241.675781 135.585938 L 232.613281 183.195312 L 236.726562 183.988281 L 245.9375 135.585938 Z M 241.675781 135.585938 " fill-opacity="1" fill-rule="nonzero"/><path fill="#4683c4" d="M 192.390625 203.445312 C 192.390625 204.011719 192.847656 204.449219 193.390625 204.449219 L 207.550781 204.449219 C 208.117188 204.449219 208.554688 203.988281 208.554688 203.445312 L 208.554688 202.109375 C 208.554688 201.542969 208.09375 201.105469 207.550781 201.105469 L 193.390625 201.105469 C 192.828125 201.105469 192.390625 201.566406 192.390625 202.109375 Z M 192.390625 203.445312 " fill-opacity="1" fill-rule="nonzero"/><path fill="#6d3a2c" d="M 141.871094 182.484375 C 141.871094 185.011719 143.414062 187.0625 145.292969 187.0625 C 147.195312 187.0625 148.71875 185.011719 148.71875 182.484375 C 148.71875 181.210938 148.324219 180.058594 147.695312 179.222656 L 149.972656 154.125 C 150.765625 146.078125 149.179688 141.816406 145.023438 141.1875 L 145.335938 138.054688 L 186.792969 184.40625 L 227.726562 184.40625 L 227.726562 180.226562 L 190.925781 180.226562 L 201.121094 133.976562 L 232.050781 180.226562 L 235.515625 177.90625 L 202.351562 128.3125 L 202.957031 125.535156 L 198.445312 125.703125 L 197.925781 128.105469 L 146.296875 128.105469 L 148.03125 110.425781 L 143.789062 110.425781 L 140.847656 140.894531 L 140.28125 145.347656 L 144.585938 145.765625 C 146.757812 145.933594 145.816406 153.707031 145.816406 153.707031 L 143.582031 178.492188 C 142.558594 179.328125 141.871094 180.792969 141.871094 182.484375 Z M 145.878906 132.410156 L 145.898438 132.285156 L 197.027344 132.285156 L 187.042969 178.429688 Z M 145.878906 132.410156 " fill-opacity="1" fill-rule="nonzero"/><path fill="#4683c4" d="M 127.082031 110.425781 C 126.519531 110.425781 126.082031 110.027344 126.082031 109.546875 L 126.082031 106.933594 C 126.082031 106.453125 126.539062 106.054688 127.082031 106.054688 L 127.667969 106.054688 C 127.667969 106.054688 127.8125 109.191406 128.671875 110.425781 C 127.6875 110.425781 127.082031 110.425781 127.082031 110.425781 Z M 127.082031 110.425781 " fill-opacity="1" fill-rule="nonzero"/><path fill="#000000" d="M 199.992188 193.855469 C 199.992188 193.855469 192.703125 194 192.703125 199.265625 C 192.703125 200.9375 192.703125 201.085938 192.703125 201.085938 L 208.242188 201.085938 C 208.242188 201.085938 208.242188 196.488281 208.242188 193.832031 C 203.542969 193.855469 199.992188 193.855469 199.992188 193.855469 Z M 199.992188 193.855469 " fill-opacity="1" fill-rule="nonzero"/><path fill="#ffffff" d="M 192.953125 198.996094 L 207.992188 198.996094 L 207.992188 200.769531 L 192.953125 200.769531 Z M 192.953125 198.996094 " fill-opacity="1" fill-rule="nonzero"/><path fill="#1f4199" d="M 199.261719 193.917969 C 199.261719 193.917969 193.351562 145.386719 192.808594 124.613281 C 203.1875 120.582031 212.0625 112.742188 212.0625 112.742188 C 212.0625 112.742188 208.386719 149.066406 208.242188 193.832031 C 203 193.855469 199.261719 193.917969 199.261719 193.917969 Z M 199.261719 193.917969 " fill-opacity="1" fill-rule="nonzero"/><path fill="#b89067" d="M 188.253906 174.105469 C 192.953125 174.105469 196.777344 177.929688 196.777344 182.628906 C 196.777344 187.332031 192.953125 191.15625 188.253906 191.15625 C 183.554688 191.15625 179.734375 187.332031 179.734375 182.628906 C 179.734375 177.929688 183.535156 174.105469 188.253906 174.105469 Z M 188.253906 174.105469 " fill-opacity="1" fill-rule="nonzero"/><path fill="#b89067" d="M 234.804688 176.027344 C 237.960938 176.027344 240.527344 178.597656 240.527344 181.753906 C 240.527344 184.910156 237.960938 187.480469 234.804688 187.480469 C 231.652344 187.480469 229.085938 184.910156 229.085938 181.753906 C 229.085938 178.597656 231.652344 176.027344 234.804688 176.027344 Z M 234.804688 176.027344 " fill-opacity="1" fill-rule="nonzero"/><path fill="#1f4199" d="M 202.976562 23.066406 C 202.058594 21.9375 194.667969 12.617188 185.6875 12.617188 C 176.707031 12.617188 169.3125 21.9375 168.394531 23.066406 C 166.179688 25.78125 167.828125 28.1875 169.039062 27.933594 C 170.25 27.683594 170.566406 27.496094 170.566406 27.496094 L 200.828125 27.496094 C 200.828125 27.496094 201.140625 27.683594 202.351562 27.933594 C 203.5625 28.1875 205.191406 25.78125 202.976562 23.066406 Z M 202.976562 23.066406 " fill-opacity="1" fill-rule="nonzero"/><path fill="#000000" d="M 185.394531 27.957031 C 173.113281 27.957031 170.523438 29.648438 170.523438 29.648438 C 170.523438 29.648438 174.46875 33.011719 185.644531 33.011719 C 196.839844 33.011719 200.765625 29.648438 200.765625 29.648438 C 200.765625 29.648438 198.175781 27.957031 185.894531 27.957031 Z M 185.394531 27.957031 " fill-opacity="1" fill-rule="nonzero"/><path fill="#faac18" d="M 187.710938 19.660156 C 187.710938 21.476562 186.792969 22.960938 185.664062 22.960938 C 184.535156 22.960938 183.617188 21.476562 183.617188 19.660156 C 183.617188 17.839844 184.535156 16.355469 185.664062 16.355469 C 186.792969 16.355469 187.710938 17.839844 187.710938 19.660156 Z M 187.710938 19.660156 " fill-opacity="1" fill-rule="nonzero"/><path fill="#242564" d="M 185.957031 24.925781 C 175.410156 24.925781 169.019531 27.933594 169.019531 27.933594 L 169.019531 30.484375 C 169.019531 30.484375 172.820312 28.4375 185.9375 28.4375 C 199.050781 28.4375 202.308594 30.484375 202.308594 30.484375 L 202.308594 27.933594 C 202.332031 27.933594 196.503906 24.925781 185.957031 24.925781 Z M 185.957031 24.925781 " fill-opacity="1" fill-rule="nonzero"/><path fill="#faac18" d="M 169.292969 30.734375 C 169.1875 30.734375 169.082031 30.671875 169.0625 30.546875 C 169.019531 30.421875 169.101562 30.277344 169.226562 30.234375 C 169.292969 30.210938 176.476562 28.1875 186.125 28.1875 C 195.792969 28.1875 202.082031 30.210938 202.144531 30.234375 C 202.269531 30.277344 202.351562 30.421875 202.308594 30.546875 C 202.269531 30.671875 202.121094 30.757812 201.996094 30.714844 C 201.933594 30.695312 195.710938 28.6875 186.144531 28.6875 C 176.558594 28.6875 169.457031 30.695312 169.375 30.714844 C 169.332031 30.714844 169.3125 30.734375 169.292969 30.734375 Z M 169.292969 30.734375 " fill-opacity="1" fill-rule="nonzero"/><path fill="#9fd2f1" d="M 177.1875 86.453125 C 177.101562 86.453125 177.019531 86.390625 176.996094 86.285156 C 176.996094 86.265625 176.621094 83.671875 176.371094 80.371094 C 176.140625 77.296875 175.953125 72.972656 176.433594 69.710938 C 176.453125 69.609375 176.539062 69.546875 176.640625 69.546875 C 176.746094 69.566406 176.808594 69.648438 176.808594 69.753906 C 176.328125 72.992188 176.515625 77.296875 176.746094 80.328125 C 176.996094 83.632812 177.375 86.203125 177.375 86.222656 C 177.394531 86.328125 177.3125 86.410156 177.207031 86.433594 C 177.207031 86.453125 177.207031 86.453125 177.1875 86.453125 Z M 177.1875 86.453125 " fill-opacity="1" fill-rule="nonzero"/><path fill="#ffffff" d="M 183.222656 62.1875 L 183.578125 81.5625 C 183.578125 81.5625 189.550781 72.804688 190.96875 60.578125 C 187.773438 65.636719 184.308594 63.503906 183.222656 62.1875 Z M 183.222656 62.1875 " fill-opacity="1" fill-rule="nonzero"/><path fill="#1a9dd8" d="M 191.03125 60.308594 C 191.03125 60.308594 188.609375 71.425781 187.105469 74.9375 C 190.195312 67.707031 192.117188 64.363281 194.394531 60.976562 C 193.371094 59.929688 192.515625 59.054688 190.613281 58.449219 C 190.96875 59.285156 191.179688 59.910156 191.03125 60.308594 Z M 191.03125 60.308594 " fill-opacity="1" fill-rule="nonzero"/><path fill="#1a9dd8" d="M 182.71875 59.449219 C 182.71875 59.449219 184.097656 62.25 183.597656 81.5625 C 181.675781 69.671875 180.128906 63.085938 180.128906 63.085938 C 180.128906 63.085938 180.925781 60.578125 182.71875 59.449219 Z M 182.71875 59.449219 " fill-opacity="1" fill-rule="nonzero"/><path fill="#000000" d="M 186.355469 63.777344 C 186.355469 63.777344 184.308594 64.925781 183.597656 67.289062 C 184.703125 68.457031 185.101562 68.582031 185.101562 68.582031 L 183.679688 76.671875 L 183.578125 81.542969 C 183.578125 81.542969 186.6875 75.753906 187.417969 74.5625 C 187.566406 72.867188 187.253906 68.710938 187.253906 68.710938 L 189.214844 67.957031 C 189.214844 67.957031 188.109375 64.90625 186.355469 63.777344 Z M 186.355469 63.777344 " fill-opacity="1" fill-rule="nonzero"/><path fill="#a77056" d="M 179.066406 63.421875 C 179.066406 63.421875 180.589844 73.996094 183.222656 82.210938 C 181.070312 85.722656 180.589844 86.285156 180.589844 86.285156 C 180.589844 86.285156 176.621094 70.320312 176.453125 65.867188 C 176.140625 62.480469 179.230469 62.355469 179.566406 63.023438 C 179.316406 63.234375 179.066406 63.421875 179.066406 63.421875 Z M 179.066406 63.421875 " fill-opacity="1" fill-rule="nonzero"/><path fill="#9fd2f1" d="M 180.609375 101.667969 C 180.546875 101.667969 180.507812 101.644531 180.464844 101.605469 C 180.402344 101.519531 180.421875 101.394531 180.507812 101.332031 C 180.546875 101.292969 184.765625 97.988281 189.445312 93.222656 C 193.746094 88.835938 199.34375 82.273438 201.515625 75.980469 C 201.558594 75.878906 201.664062 75.835938 201.746094 75.855469 C 201.851562 75.898438 201.890625 76.003906 201.871094 76.085938 C 200.660156 79.597656 197.570312 85.46875 189.714844 93.476562 C 185.015625 98.261719 180.796875 101.582031 180.757812 101.605469 C 180.695312 101.644531 180.652344 101.667969 180.609375 101.667969 Z M 180.609375 101.667969 " fill-opacity="1" fill-rule="nonzero"/><path fill="#9fd2f1" d="M 178.1875 90.132812 C 178.144531 90.132812 178.105469 90.109375 178.082031 90.089844 C 178 90.027344 177.980469 89.902344 178.042969 89.816406 C 178.105469 89.734375 184.789062 80.933594 190.03125 67.875 C 190.070312 67.769531 190.175781 67.726562 190.28125 67.769531 C 190.382812 67.8125 190.425781 67.914062 190.382812 68.019531 C 185.144531 81.125 178.417969 89.964844 178.355469 90.046875 C 178.3125 90.109375 178.25 90.132812 178.1875 90.132812 Z M 178.1875 90.132812 " fill-opacity="1" fill-rule="nonzero"/><path fill="#90553c" d="M 195.667969 123.089844 C 195.667969 125.472656 193.726562 127.414062 191.34375 127.414062 C 188.964844 127.414062 187.023438 125.472656 187.023438 123.089844 L 187.023438 108.0625 C 187.023438 105.679688 188.964844 103.734375 191.34375 103.734375 C 193.726562 103.734375 195.667969 105.679688 195.667969 108.0625 Z M 195.667969 123.089844 " fill-opacity="1" fill-rule="nonzero"/><path fill="#a77056" d="M 206.507812 83.234375 L 210.726562 103.734375 C 210.726562 103.734375 212.460938 106.535156 214.464844 107.289062 C 210.769531 96.359375 206.507812 83.234375 206.507812 83.234375 Z M 206.507812 83.234375 " fill-opacity="1" fill-rule="nonzero"/><path fill="#6d3a2c" d="M 211.4375 127.414062 C 213.816406 127.414062 215.757812 125.472656 215.757812 123.089844 L 215.757812 108.0625 C 215.757812 105.679688 213.816406 103.734375 211.4375 103.734375 L 191.34375 103.734375 C 193.726562 103.734375 195.667969 105.679688 195.667969 108.0625 L 195.667969 123.089844 C 195.667969 125.472656 193.726562 127.414062 191.34375 127.414062 Z M 211.4375 127.414062 " fill-opacity="1" fill-rule="nonzero"/><path fill="#a77056" d="M 185.519531 97.238281 L 189.214844 108.25 L 193.453125 108.25 L 188.820312 94.101562 Z M 185.519531 97.238281 " fill-opacity="1" fill-rule="nonzero"/><path fill="#a77056" d="M 206.171875 117.300781 C 201.808594 117.300781 199.175781 115.292969 197.757812 113.621094 C 196.210938 111.804688 195.710938 110.007812 195.6875 109.941406 C 195.648438 109.816406 195.730469 109.671875 195.855469 109.652344 C 195.980469 109.609375 196.128906 109.691406 196.148438 109.816406 C 196.148438 109.839844 196.648438 111.59375 198.132812 113.328125 C 200.117188 115.648438 202.8125 116.820312 206.171875 116.820312 C 209.515625 116.820312 212.0625 115.753906 213.753906 113.621094 C 215.007812 112.035156 215.300781 110.425781 215.300781 110.402344 C 215.320312 110.277344 215.445312 110.171875 215.570312 110.195312 C 215.695312 110.214844 215.800781 110.339844 215.78125 110.464844 C 215.757812 110.527344 215.488281 112.199219 214.152344 113.894531 C 212.917969 115.441406 210.539062 117.300781 206.171875 117.300781 Z M 206.171875 117.300781 " fill-opacity="1" fill-rule="nonzero"/><path fill="#faac18" d="M 208.472656 117.738281 C 208.472656 118.824219 207.59375 119.703125 206.507812 119.703125 C 205.421875 119.703125 204.542969 118.824219 204.542969 117.738281 L 204.542969 116.359375 C 204.542969 115.273438 205.421875 114.394531 206.507812 114.394531 C 207.59375 114.394531 208.472656 115.273438 208.472656 116.359375 Z M 208.472656 117.738281 " fill-opacity="1" fill-rule="nonzero"/></svg>